<?xml version="1.0" encoding="UTF-8"?>
<svg width="32px" height="32px" viewBox="0 0 32 32" version="1.1" xmlns="http://www.w3.org/2000/svg" xmlns:xlink="http://www.w3.org/1999/xlink">
    <!-- Generator: Sketch 49.3 (51167) - http://www.bohemiancoding.com/sketch -->
    <title>ej-lamning</title>
    <desc>Created with Sketch.</desc>
    <defs></defs>
    <g id="Symboler-och-kartverktyg" stroke="none" stroke-width="1" fill="none" fill-rule="evenodd">
        <g id="Artboard-2" transform="translate(-1047.000000, -708.000000)" fill-rule="nonzero">
            <g id="ej-lamning" transform="translate(1047.000000, 708.000000)">
                <path d="M16,0 C7.2,0 0,7.2 0,16 C0,24.8 7.2,32 16,32 C24.8,32 32,24.8 32,16 C32,7.2 24.8,0 16,0 Z" id="Shape" fill="#3A3A3A"></path>
                <polygon id="Shape" fill="#FF9D5C" points="8.787 16 16 8.788 23.212 16 16 23.212"></polygon>
                <path d="M16,2 C8.3,2 2,8.3 2,16 C2,23.7 8.3,30 16,30 C23.7,30 30,23.7 30,16 C30,8.3 23.7,2 16,2 Z M16,26 L6,16 L16,6 L26,16 L16,26 Z" id="Shape" fill="#FF9D5C"></path>
            </g>
        </g>
    </g>
</svg>