<?xml version="1.0" encoding="UTF-8"?>
<svg width="32px" height="32px" viewBox="0 0 32 32" version="1.1" xmlns="http://www.w3.org/2000/svg" xmlns:xlink="http://www.w3.org/1999/xlink">
    <!-- Generator: Sketch 49.3 (51167) - http://www.bohemiancoding.com/sketch -->
    <title>ovr-lamning</title>
    <desc>Created with Sketch.</desc>
    <defs></defs>
    <g id="Symboler-och-kartverktyg" stroke="none" stroke-width="1" fill="none" fill-rule="evenodd">
        <g id="Artboard-2" transform="translate(-1047.000000, -760.000000)" fill-rule="nonzero">
            <g id="ovr-lamning" transform="translate(1047.000000, 760.000000)">
                <circle id="Oval" fill="#3A3A3A" cx="16" cy="16" r="16"></circle>
                <path d="M11,16 C11,18.4 12.7,20.4 15,20.9 L15,11.1 C12.7,11.6 11,13.6 11,16 Z M17,11.1 L17,20.9 C19.3,20.4 21,18.4 21,16 C21,13.6 19.3,11.6 17,11.1 Z" id="Shape" fill="#FF9D5C"></path>
                <path d="M16,2 C8.3,2 2,8.3 2,16 C2,23.7 8.3,30 16,30 C23.7,30 30,23.7 30,16 C30,8.3 23.7,2 16,2 Z M17,22.9 L17,26 L15,26 L15,22.9 C11.6,22.4 9,19.5 9,16 C9,12.5 11.6,9.6 15,9.1 L15,6 L17,6 L17,9.1 C20.4,9.6 23,12.5 23,16 C23,19.5 20.4,22.4 17,22.9 Z" id="Shape" fill="#FF9D5C"></path>
            </g>
        </g>
    </g>
</svg>